<svg width="24" height="24" viewBox="0 0 24 24" fill="none" xmlns="http://www.w3.org/2000/svg">
<g clip-path="url(#clip0_1_3)">
<path d="M6.11577 13.2123C6.15893 13.2121 6.20208 13.2119 6.24655 13.2116C6.29403 13.2116 6.34152 13.2116 6.39044 13.2115C6.44083 13.2113 6.49122 13.2111 6.54314 13.2109C6.71284 13.2103 6.88254 13.21 7.05225 13.2097C7.17358 13.2093 7.29491 13.209 7.41625 13.2085C7.78097 13.2074 8.1457 13.2067 8.51043 13.2061C8.61345 13.2059 8.71647 13.2057 8.81949 13.2056C9.45928 13.2044 10.0991 13.2033 10.7389 13.2028C10.8871 13.2026 11.0352 13.2025 11.1834 13.2023C11.2387 13.2023 11.2387 13.2023 11.295 13.2022C11.8916 13.2016 12.4882 13.2001 13.0848 13.1981C13.6973 13.1961 14.3099 13.195 14.9224 13.1948C15.2663 13.1946 15.6102 13.1941 15.9541 13.1925C16.2776 13.1911 16.6012 13.1908 16.9247 13.1914C17.0434 13.1914 17.1622 13.191 17.2809 13.1902C17.4431 13.1891 17.6051 13.1895 17.7673 13.1903C17.8143 13.1896 17.8612 13.1889 17.9096 13.1883C18.2144 13.1917 18.4224 13.2525 18.6562 13.4531C18.9159 13.7418 18.9206 14.0142 18.9053 14.3906C18.9042 14.4404 18.9032 14.4901 18.9021 14.5413C18.8993 14.663 18.8955 14.7846 18.8906 14.9063C18.9223 14.8933 18.9539 14.8803 18.9866 14.8669C19.0493 14.8414 19.0493 14.8414 19.1133 14.8154C19.1753 14.7901 19.1753 14.7901 19.2385 14.7643C19.706 14.588 20.2688 14.619 20.7305 14.7971C21.2675 15.0565 21.6255 15.4309 21.8437 15.9844C22.1282 16.8797 21.9797 17.8275 21.5625 18.6562C21.0199 19.6674 20.0817 20.5436 18.9771 20.8911C18.7739 20.9517 18.5697 21.0085 18.3653 21.065C18.0793 21.144 17.7948 21.2279 17.5107 21.3135C17.4429 21.3335 17.4429 21.3335 17.3737 21.354C17.0465 21.4529 16.7883 21.5468 16.5469 21.7969C16.5837 21.7976 16.6206 21.7982 16.6586 21.7989C16.8265 21.8024 16.9943 21.807 17.1621 21.8115C17.2491 21.8131 17.2491 21.8131 17.3379 21.8147C17.3941 21.8164 17.4503 21.8181 17.5082 21.8198C17.5597 21.821 17.6113 21.8222 17.6644 21.8235C17.874 21.8522 18.0357 21.9203 18.1787 22.0781C18.3155 22.3086 18.3074 22.5475 18.2596 22.803C18.1436 23.2462 17.8664 23.6053 17.4844 23.8594C17.2052 23.9823 16.9822 24.0204 16.6792 24.0182C16.6165 24.0186 16.6165 24.0186 16.5527 24.0189C16.4136 24.0196 16.2745 24.0193 16.1354 24.0189C16.0354 24.0192 15.9354 24.0195 15.8353 24.0199C15.5641 24.0208 15.293 24.0207 15.0218 24.0204C14.7952 24.0203 14.5686 24.0206 14.3421 24.0209C13.8075 24.0215 13.2729 24.0214 12.7383 24.0209C12.1872 24.0204 11.6361 24.021 11.085 24.0223C10.6114 24.0233 10.1378 24.0236 9.66425 24.0234C9.38157 24.0232 9.09891 24.0233 8.81624 24.0241C8.55041 24.0248 8.2846 24.0247 8.01877 24.0238C7.92136 24.0236 7.82395 24.0238 7.72655 24.0242C7.59327 24.0249 7.46005 24.0243 7.32678 24.0235C7.2885 24.0239 7.25022 24.0244 7.21079 24.0249C6.80116 24.0197 6.47693 23.8541 6.18072 23.5774C5.87934 23.2551 5.72512 22.9372 5.7041 22.4941C5.72303 22.2595 5.77701 22.1059 5.95312 21.9463C6.14028 21.8352 6.30549 21.835 6.5191 21.8289C6.55116 21.8279 6.58321 21.827 6.61624 21.826C6.71844 21.8229 6.82064 21.8201 6.92285 21.8174C6.99222 21.8154 7.06158 21.8133 7.13095 21.8112C7.30084 21.8062 7.47073 21.8015 7.64062 21.7969C7.60943 21.7669 7.60943 21.7669 7.5776 21.7363C6.32136 20.5083 5.52618 18.4532 5.42853 16.7153C5.4375 16.5937 5.4375 16.5937 5.50781 16.459C5.65024 16.3379 5.72536 16.3332 5.90625 16.3328C6.0419 16.3712 6.09713 16.4397 6.1875 16.5469C6.22791 16.6729 6.22791 16.6729 6.2525 16.8181C6.2624 16.8723 6.2723 16.9265 6.2825 16.9824C6.29272 17.0407 6.30294 17.0991 6.31348 17.1592C6.59985 18.6522 7.12515 20.1282 8.20312 21.2344C8.24654 21.2805 8.24654 21.2805 8.29083 21.3276C8.36936 21.4092 8.44611 21.4877 8.53125 21.5625C8.59608 21.6219 8.59608 21.6219 8.66221 21.6825C8.91085 21.8573 9.18454 21.8307 9.47795 21.8294C9.53981 21.8301 9.60166 21.8307 9.66539 21.8314C9.83441 21.833 10.0034 21.8332 10.1724 21.833C10.3139 21.8329 10.4555 21.8336 10.597 21.8342C10.9312 21.8356 11.2653 21.8358 11.5995 21.8352C11.9432 21.8346 12.2868 21.8362 12.6305 21.8389C12.9265 21.8412 13.2224 21.842 13.5184 21.8417C13.6948 21.8415 13.8711 21.8419 14.0475 21.8437C14.2135 21.8453 14.3795 21.8451 14.5456 21.8436C14.6348 21.8432 14.724 21.8446 14.8132 21.8461C15.2417 21.8394 15.4805 21.7045 15.7969 21.4219C15.8585 21.3672 15.8585 21.3672 15.9214 21.3115C17.3629 19.992 17.8386 17.7871 18.0469 15.9375C18.0508 15.9039 18.0547 15.8702 18.0587 15.8355C18.0988 15.4524 18.0991 15.0714 18.0967 14.6865C18.0964 14.6211 18.0962 14.5557 18.096 14.4903C18.0955 14.3321 18.0947 14.1739 18.0937 14.0156C16.5658 14.0146 15.0379 14.0137 13.51 14.0132C13.3298 14.0132 13.1496 14.0131 12.9694 14.0131C12.9335 14.013 12.8976 14.013 12.8607 14.013C12.279 14.0128 11.6974 14.0124 11.1157 14.012C10.5193 14.0116 9.92294 14.0113 9.32656 14.0112C8.95826 14.0112 8.58996 14.0109 8.22166 14.0106C7.93973 14.0103 7.6578 14.0103 7.37587 14.0103C7.25986 14.0103 7.14385 14.0102 7.02784 14.01C6.87021 14.0098 6.71258 14.0099 6.55495 14.01C6.5084 14.0099 6.46184 14.0097 6.41388 14.0096C6.37198 14.0097 6.33009 14.0098 6.28693 14.0099C6.25049 14.0098 6.21405 14.0098 6.17652 14.0098C6.09251 14.0066 6.09251 14.0066 6.04687 14.0625C6.04506 14.1604 6.04634 14.2583 6.04889 14.3562C6.04989 14.4163 6.05088 14.4764 6.05191 14.5384C6.05364 14.6343 6.05565 14.7301 6.05844 14.826C6.06101 14.9184 6.06229 15.0108 6.06354 15.1033C6.06482 15.1587 6.0661 15.2141 6.06742 15.2712C6.04274 15.4522 5.98685 15.5281 5.85937 15.6563C5.76562 15.6857 5.76562 15.6857 5.67187 15.6826C5.64094 15.6827 5.61 15.6827 5.57812 15.6828C5.4418 15.6442 5.38386 15.579 5.29687 15.4688C5.24865 15.2857 5.25462 15.0949 5.25 14.9063C5.24879 14.8694 5.24758 14.8325 5.24634 14.7945C5.2426 14.6716 5.24023 14.5487 5.23828 14.4258C5.23727 14.3864 5.23626 14.3471 5.23521 14.3066C5.23362 13.9959 5.2755 13.7291 5.48144 13.487C5.51335 13.4613 5.54525 13.4356 5.57812 13.4092C5.61003 13.3827 5.64193 13.3561 5.6748 13.3288C5.82078 13.2273 5.94309 13.2128 6.11577 13.2123ZM19.2187 15.6094C19.1827 15.6276 19.1466 15.6459 19.1094 15.6647C18.955 15.7587 18.8598 15.8331 18.81 16.0114C18.8039 16.057 18.7978 16.1026 18.7916 16.1495C18.7844 16.1996 18.7773 16.2498 18.7699 16.3014C18.7634 16.3515 18.7568 16.4015 18.75 16.4531C18.7373 16.5392 18.7244 16.6253 18.7114 16.7113C18.7049 16.754 18.6985 16.7966 18.6918 16.8406C18.5066 18.0268 18.1972 19.2374 17.5898 20.2828C17.5238 20.3839 17.5238 20.3839 17.5312 20.4844C18.5965 20.251 19.4726 19.9586 20.25 19.1719C20.2812 19.1411 20.3125 19.1104 20.3447 19.0787C20.8792 18.5152 21.2269 17.6945 21.2461 16.9189C21.2331 16.4552 21.1105 16.0395 20.7675 15.7081C20.2876 15.3302 19.75 15.3301 19.2187 15.6094ZM6.51562 22.5937C6.55408 22.8784 6.55408 22.8784 6.73242 23.0508C6.763 23.0776 6.79357 23.1044 6.82507 23.1321C7.08415 23.2958 7.36299 23.3106 7.66171 23.3091C7.71969 23.3094 7.71969 23.3094 7.77883 23.3096C7.90768 23.3101 8.03653 23.3099 8.16538 23.3097C8.25803 23.31 8.35068 23.3102 8.44333 23.3105C8.69456 23.3111 8.94579 23.3111 9.19702 23.311C9.40693 23.311 9.61684 23.3112 9.82674 23.3114C10.3221 23.3119 10.8174 23.312 11.3127 23.3117C11.8233 23.3114 12.3338 23.312 12.8444 23.313C13.2831 23.3138 13.7219 23.3141 14.1606 23.3139C14.4225 23.3138 14.6844 23.314 14.9462 23.3146C15.1925 23.3152 15.4389 23.3151 15.6852 23.3145C15.7754 23.3144 15.8656 23.3145 15.9559 23.3149C16.0794 23.3154 16.2029 23.315 16.3264 23.3144C16.3618 23.3148 16.3972 23.3151 16.4336 23.3155C16.7248 23.3125 17.0217 23.2591 17.2573 23.079C17.2781 23.0523 17.2989 23.0256 17.3203 22.998C17.3421 22.9716 17.3638 22.9451 17.3862 22.9178C17.4539 22.8104 17.4539 22.8104 17.4844 22.5937C13.8647 22.5937 10.245 22.5937 6.51562 22.5937Z" fill="black" stroke="black" stroke-width="0.3"/>
<path d="M2.11946 3.50946C2.15876 3.50928 2.19807 3.5091 2.23856 3.50892C2.30297 3.50898 2.30297 3.50898 2.36868 3.50904C2.41448 3.5089 2.46028 3.50876 2.50747 3.50862C2.66138 3.50821 2.81528 3.50814 2.96918 3.50807C3.07936 3.50785 3.18954 3.50762 3.29972 3.50737C3.63064 3.50669 3.96156 3.50641 4.29248 3.50618C4.44841 3.50606 4.60435 3.50588 4.76028 3.5057C5.27881 3.50513 5.79734 3.50465 6.31587 3.50449C6.34905 3.50448 6.38223 3.50447 6.41641 3.50446C6.44967 3.50445 6.48293 3.50444 6.51719 3.50443C6.58458 3.50441 6.65197 3.50439 6.71936 3.50436C6.75279 3.50435 6.78622 3.50434 6.82066 3.50433C7.36204 3.50415 7.90341 3.50333 8.44479 3.50224C9.00092 3.50113 9.55705 3.50054 10.1132 3.50049C10.4253 3.50044 10.7374 3.50016 11.0495 3.49932C11.3432 3.49855 11.6369 3.49845 11.9306 3.49886C12.0383 3.4989 12.1459 3.49869 12.2536 3.49823C12.4009 3.49763 12.5481 3.49791 12.6953 3.4984C12.7589 3.49783 12.7589 3.49783 12.8238 3.49725C13.3035 3.50097 13.6146 3.63757 13.9607 3.96808C14.1876 4.21331 14.3018 4.46186 14.3038 4.79675C14.3043 4.85716 14.3043 4.85716 14.3048 4.91879C14.3049 4.9626 14.305 5.00641 14.3052 5.05155C14.3055 5.09799 14.3058 5.14443 14.3061 5.19228C14.307 5.34598 14.3076 5.49968 14.308 5.65338C14.3082 5.70595 14.3084 5.75852 14.3086 5.81268C14.3096 6.09096 14.3103 6.36924 14.3107 6.64752C14.3112 6.93449 14.3128 7.22145 14.3147 7.50841C14.3159 7.72947 14.3163 7.95052 14.3165 8.17158C14.3167 8.27734 14.3173 8.3831 14.3181 8.48885C14.3193 8.63716 14.3192 8.78543 14.3189 8.93375C14.3198 8.99875 14.3198 8.99875 14.3207 9.06507C14.3173 9.49064 14.1659 9.82334 13.8781 10.1347C13.5876 10.3867 13.2475 10.5055 12.868 10.5065C12.8157 10.5067 12.7635 10.507 12.7097 10.5072C12.6526 10.5073 12.5955 10.5073 12.5366 10.5074C12.4441 10.5078 12.3515 10.5081 12.2589 10.5085C12.1595 10.5089 12.0601 10.5091 11.9606 10.5093C11.7532 10.5098 11.5457 10.5108 11.3383 10.5118C10.7484 10.5147 10.1586 10.5173 9.56869 10.5188C9.24283 10.5197 8.91698 10.521 8.59112 10.5229C8.4188 10.5239 8.24649 10.5247 8.07417 10.5248C7.88184 10.5249 7.68952 10.5261 7.4972 10.5274C7.44037 10.5272 7.38355 10.5271 7.32501 10.5269C6.95072 10.5306 6.69375 10.5809 6.3858 10.8029C6.35526 10.8246 6.32472 10.8464 6.29325 10.8689C6.24526 10.9038 6.24526 10.9038 6.19629 10.9395C6.1619 10.9641 6.12752 10.9888 6.09209 11.0142C5.98305 11.0925 5.87433 11.1712 5.76562 11.25C5.6957 11.3004 5.62575 11.3507 5.55579 11.4011C5.37967 11.5279 5.20385 11.6551 5.0281 11.7824C4.81716 11.9352 4.60595 12.0876 4.39475 12.24C4.21761 12.3679 4.04061 12.4959 3.86389 12.6244C3.68891 12.7515 3.51331 12.8778 3.33746 13.0037C3.23363 13.0787 3.13073 13.1548 3.02783 13.231C2.96194 13.2787 2.89603 13.3264 2.83008 13.374C2.8007 13.3963 2.77133 13.4185 2.74107 13.4414C2.52222 13.5971 2.37744 13.6228 2.10938 13.5938C1.93349 13.4993 1.84517 13.4318 1.73438 13.2656C1.67774 12.9086 1.78267 12.6102 1.9173 12.2844C1.93591 12.2375 1.95453 12.1906 1.97371 12.1424C2.03283 11.994 2.09305 11.8461 2.15332 11.6982C2.19365 11.5977 2.2339 11.4972 2.27408 11.3966C2.36218 11.1762 2.451 10.9561 2.54046 10.7362C2.57111 10.6584 2.59855 10.5793 2.625 10.5C2.58361 10.5022 2.54222 10.5044 2.49957 10.5066C2.019 10.521 1.63111 10.4704 1.24805 10.1631C1.00281 9.92943 0.813194 9.62323 0.790583 9.2793C0.790283 9.2281 0.790283 9.2281 0.789976 9.17587C0.789641 9.13645 0.789306 9.09704 0.78896 9.05643C0.788834 9.01357 0.788708 8.97071 0.788578 8.92655C0.78827 8.8811 0.787962 8.83565 0.787645 8.78882C0.786721 8.63839 0.786173 8.48796 0.785706 8.33752C0.785419 8.26031 0.785419 8.26031 0.785127 8.18154C0.784149 7.90898 0.783479 7.63642 0.783039 7.36386C0.782521 7.08299 0.780909 6.80213 0.779047 6.52127C0.777818 6.30475 0.777428 6.08824 0.77726 5.87172C0.777033 5.76823 0.776489 5.66473 0.775618 5.56124C0.774471 5.41597 0.77452 5.27074 0.774845 5.12547C0.774245 5.08318 0.773644 5.04089 0.773026 4.99731C0.776553 4.56153 0.919421 4.19795 1.21875 3.87927C1.47945 3.65015 1.77106 3.51007 2.11946 3.50946ZM1.67285 4.52637C1.52845 4.73495 1.53964 4.90644 1.53932 5.15364C1.53909 5.19709 1.53886 5.24055 1.53862 5.28532C1.53793 5.42955 1.53761 5.57378 1.53735 5.71802C1.53708 5.8181 1.53681 5.91818 1.53654 6.01827C1.53605 6.22838 1.53578 6.43849 1.53561 6.64861C1.53536 6.91773 1.53423 7.18683 1.5329 7.45595C1.53202 7.66281 1.53178 7.86966 1.53171 8.07652C1.53157 8.17572 1.53119 8.27492 1.53057 8.37412C1.52977 8.51304 1.52986 8.65193 1.53017 8.79085C1.52973 8.83177 1.5293 8.87269 1.52886 8.91485C1.53047 9.1503 1.55695 9.31163 1.6875 9.51562C1.88393 9.69732 2.02945 9.75458 2.29358 9.75989C2.3386 9.76122 2.38361 9.76255 2.42999 9.76392C2.52447 9.76635 2.61895 9.76843 2.71344 9.77014C3.15538 9.78434 3.15538 9.78434 3.32812 9.9375C3.4564 10.1492 3.44668 10.3531 3.42188 10.5938C3.3835 10.7442 3.32747 10.8834 3.26642 11.0259C3.2507 11.0645 3.23498 11.1032 3.21879 11.143C3.16908 11.2649 3.11831 11.3864 3.06738 11.5078C3.01645 11.6306 2.96576 11.7535 2.91547 11.8766C2.88427 11.9529 2.85267 12.0289 2.82064 12.1048C2.78394 12.1938 2.75097 12.2843 2.71875 12.375C2.74195 12.4214 2.74195 12.4214 2.76562 12.4688C2.78677 12.4535 2.80791 12.4382 2.82969 12.4225C3.44115 11.9809 4.0526 11.5393 4.66406 11.0977C4.6989 11.0725 4.73374 11.0473 4.76963 11.0214C4.83957 10.9709 4.90954 10.9205 4.97954 10.8701C5.16146 10.739 5.34258 10.607 5.52264 10.4734C5.5599 10.446 5.59715 10.4186 5.63553 10.3903C5.70608 10.3383 5.77641 10.2861 5.84647 10.2334C6.20277 9.97191 6.56184 9.79158 7.00912 9.7904C7.06182 9.79015 7.11452 9.78989 7.16882 9.78963C7.25525 9.78956 7.25525 9.78956 7.34342 9.78948C7.43681 9.78912 7.5302 9.78875 7.62359 9.78838C7.72389 9.78802 7.82419 9.78776 7.92449 9.78754C8.1337 9.78703 8.3429 9.78609 8.5521 9.78505C9.14696 9.78215 9.74183 9.77961 10.3367 9.77806C10.6653 9.7772 10.9939 9.77584 11.3226 9.77394C11.4964 9.77295 11.6702 9.77222 11.844 9.77212C12.0379 9.772 12.2318 9.7708 12.4257 9.76952C12.4831 9.76966 12.5406 9.76981 12.5997 9.76995C12.9764 9.7684 12.9764 9.7684 13.3125 9.60938C13.5405 9.3567 13.5542 9.18937 13.5552 8.85768C13.5555 8.81377 13.5558 8.76986 13.5561 8.72462C13.557 8.57886 13.5576 8.43311 13.558 8.28735C13.5582 8.23763 13.5584 8.1879 13.5586 8.13667C13.5596 7.87344 13.5603 7.61022 13.5607 7.34699C13.5612 7.07503 13.5628 6.80309 13.5647 6.53113C13.5659 6.3221 13.5663 6.11308 13.5665 5.90405C13.5667 5.8038 13.5673 5.70355 13.5681 5.60331C13.5693 5.46293 13.5692 5.32259 13.5689 5.18221C13.5695 5.14085 13.5701 5.09949 13.5707 5.05688C13.5686 4.80193 13.5346 4.65135 13.3594 4.45312C13.1162 4.24932 12.9312 4.23887 12.628 4.24213C12.583 4.24187 12.538 4.24161 12.4916 4.24134C12.3408 4.24071 12.1902 4.24141 12.0395 4.24211C11.9313 4.24193 11.8232 4.24167 11.7151 4.24134C11.4216 4.24069 11.128 4.24121 10.8345 4.24198C10.5274 4.24263 10.2203 4.24233 9.91319 4.24216C9.39745 4.242 8.88171 4.24266 8.36597 4.24376C7.83553 4.24488 7.30509 4.24521 6.77465 4.24472C6.13516 4.24412 5.49567 4.24424 4.85618 4.24498C4.61201 4.24525 4.36785 4.24525 4.12369 4.24503C3.8362 4.2448 3.54873 4.24528 3.26124 4.24629C3.15569 4.24655 3.05013 4.24657 2.94458 4.24634C2.80058 4.24606 2.65662 4.24665 2.51262 4.24745C2.47077 4.24717 2.42892 4.24689 2.38581 4.2466C2.08816 4.24964 1.88044 4.29634 1.67285 4.52637Z" fill="black" stroke="black" stroke-width="0.3"/>
<path d="M11.2162 -0.0241252C11.2629 -0.0244508 11.3096 -0.0247764 11.3578 -0.0251118C11.5135 -0.0259653 11.6691 -0.0254878 11.8248 -0.0250057C11.9367 -0.0253367 12.0487 -0.0257467 12.1607 -0.0262295C12.4327 -0.0271738 12.7048 -0.0272386 12.9768 -0.0268564C13.198 -0.0265605 13.4193 -0.026615 13.6405 -0.0269161C13.672 -0.0269583 13.7036 -0.0270006 13.7361 -0.0270441C13.8002 -0.0271309 13.8643 -0.0272182 13.9284 -0.027306C14.5288 -0.0280822 15.1292 -0.0276752 15.7296 -0.0268848C16.2782 -0.026196 16.8268 -0.0268816 17.3754 -0.0282334C17.9396 -0.0296131 18.5037 -0.0301251 19.0679 -0.029678C19.1317 -0.0296301 19.1956 -0.0295835 19.2595 -0.0295382C19.2909 -0.0295159 19.3223 -0.0294935 19.3547 -0.0294705C19.5755 -0.0293693 19.7963 -0.0298274 20.017 -0.0305118C20.3146 -0.031373 20.6121 -0.031092 20.9096 -0.02994C21.0186 -0.0297055 21.1277 -0.0298681 21.2367 -0.0304626C21.3859 -0.0312114 21.535 -0.0305065 21.6841 -0.0294467C21.7484 -0.0302789 21.7484 -0.0302789 21.814 -0.0311279C22.1913 -0.0257043 22.4908 0.104109 22.7754 0.351562C22.8083 0.390234 22.8411 0.428906 22.875 0.46875C22.9079 0.504521 22.9407 0.540293 22.9746 0.577148C23.1924 0.889309 23.2239 1.18291 23.2221 1.55216C23.2225 1.62107 23.2225 1.62107 23.223 1.69136C23.2239 1.8423 23.2237 1.99322 23.2234 2.14416C23.2237 2.2497 23.2239 2.35524 23.2242 2.46078C23.2246 2.68167 23.2245 2.90255 23.224 3.12344C23.2235 3.40567 23.2244 3.68788 23.2258 3.97011C23.2267 4.188 23.2267 4.40587 23.2264 4.62376C23.2264 4.72777 23.2267 4.83179 23.2272 4.93581C23.2279 5.08162 23.2274 5.22739 23.2266 5.37321C23.2271 5.41564 23.2275 5.45807 23.228 5.50179C23.2238 5.87081 23.1176 6.17209 22.916 6.48047C22.6596 6.72573 22.3452 6.93331 21.9838 6.95233C21.9306 6.95528 21.9306 6.95528 21.8762 6.95828C21.8394 6.96013 21.8026 6.96197 21.7646 6.96387C21.7273 6.96589 21.6899 6.96792 21.6514 6.97C21.5593 6.97497 21.4671 6.97969 21.375 6.98438C21.3917 7.02613 21.3917 7.02613 21.4088 7.06873C21.5252 7.35966 21.6407 7.65097 21.7555 7.94253C21.7985 8.05115 21.8416 8.15968 21.8851 8.26809C21.9477 8.42434 22.0093 8.58093 22.0708 8.73761C22.0903 8.78567 22.1098 8.83374 22.1298 8.88326C22.2553 9.20654 22.3413 9.49848 22.2158 9.83789C22.0887 9.97727 21.977 10.0241 21.7969 10.0781C21.4804 10.0723 21.2887 9.93095 21.041 9.75293C21.0017 9.72532 20.9623 9.69771 20.9217 9.66926C20.6496 9.47701 20.385 9.27658 20.1227 9.07104C19.9149 8.90987 19.6988 8.7604 19.4834 8.6095C19.2385 8.43787 18.9952 8.26417 18.7529 8.08887C18.7183 8.0639 18.6837 8.03893 18.6481 8.01321C18.4644 7.88045 18.2813 7.74686 18.0989 7.61224C18.0612 7.58463 18.0236 7.55701 17.9848 7.52855C17.9131 7.47594 17.8416 7.42308 17.7703 7.36992C17.3526 7.06423 16.9774 6.97885 16.4645 6.97614C16.3851 6.97505 16.3057 6.97392 16.2263 6.97275C16.102 6.9711 15.9778 6.96972 15.8535 6.9691C15.7329 6.96837 15.6124 6.96649 15.4918 6.96442C15.4362 6.96455 15.4362 6.96455 15.3794 6.96469C15.2131 6.96099 15.1128 6.95136 14.9766 6.85232C14.8732 6.70192 14.8808 6.59992 14.9062 6.42188C14.9713 6.31943 14.9713 6.31943 15.0937 6.23438C15.2543 6.20604 15.4132 6.20812 15.5759 6.20947C15.6233 6.20929 15.6707 6.20911 15.7195 6.20893C15.82 6.2088 15.9204 6.20915 16.0208 6.20993C16.1731 6.21093 16.3253 6.20994 16.4776 6.20874C16.5754 6.20886 16.6733 6.2091 16.7712 6.20947C16.8161 6.20909 16.8611 6.20871 16.9074 6.20832C17.4169 6.21525 17.815 6.39319 18.2139 6.7002C18.2872 6.75484 18.3605 6.80946 18.4338 6.86407C18.4706 6.89186 18.5075 6.91965 18.5455 6.94828C18.7213 7.07996 18.8998 7.20781 19.0781 7.33594C19.1485 7.3867 19.2188 7.43748 19.2891 7.48828C19.3239 7.51342 19.3587 7.53855 19.3945 7.56445C19.9922 7.99609 20.5898 8.42773 21.1875 8.85938C21.1875 8.67014 21.1144 8.51989 21.0439 8.34741C21.014 8.27247 20.9841 8.19752 20.9542 8.12256C20.9069 8.0047 20.8595 7.88691 20.8116 7.76926C20.7655 7.65553 20.7201 7.54154 20.6748 7.42749C20.6604 7.39271 20.6461 7.35794 20.6313 7.3221C20.5262 7.05558 20.4835 6.83117 20.5869 6.55371C20.684 6.40304 20.7539 6.32988 20.9062 6.23438C21.0526 6.20752 21.1972 6.206 21.3457 6.20508C21.8032 6.2116 21.8032 6.2116 22.2067 6.02637C22.3942 5.76771 22.4136 5.61435 22.4145 5.29948C22.4149 5.25603 22.4152 5.21258 22.4155 5.16781C22.4164 5.02357 22.417 4.87934 22.4174 4.73511C22.4176 4.6859 22.4178 4.63669 22.418 4.58599C22.419 4.3255 22.4196 4.06501 22.4201 3.80452C22.4206 3.5354 22.4222 3.26629 22.4241 2.99717C22.4253 2.79032 22.4257 2.58346 22.4259 2.3766C22.4261 2.2774 22.4266 2.1782 22.4275 2.079C22.4286 1.94008 22.4286 1.8012 22.4283 1.66228C22.4289 1.62136 22.4295 1.58044 22.4301 1.53828C22.4279 1.28359 22.387 1.14035 22.2187 0.9375C21.9772 0.711522 21.6764 0.743176 21.3652 0.743732C21.3215 0.743626 21.2779 0.743519 21.233 0.74341C21.0868 0.743113 20.9406 0.743152 20.7944 0.74319C20.6896 0.74305 20.5848 0.742891 20.48 0.742713C20.1953 0.742299 19.9105 0.742189 19.6258 0.742159C19.3882 0.742115 19.1505 0.741943 18.9129 0.741776C18.3843 0.741416 17.8557 0.741276 17.3271 0.741308C17.2795 0.741311 17.2795 0.741311 17.231 0.741314C17.1834 0.741316 17.1834 0.741316 17.1348 0.741319C16.6204 0.741338 16.1059 0.74089 15.5915 0.740229C15.063 0.739555 14.5345 0.739241 14.006 0.739272C13.7094 0.739284 13.4128 0.73915 13.1162 0.738655C12.8372 0.738201 12.5583 0.738197 12.2794 0.738538C12.177 0.738587 12.0746 0.738476 11.9723 0.738193C11.8325 0.737832 11.6928 0.738049 11.553 0.73841C11.5125 0.738169 11.4721 0.737928 11.4304 0.73768C11.13 0.739395 10.8816 0.756497 10.6465 0.960937C10.4916 1.14321 10.4935 1.24317 10.4901 1.48041C10.4888 1.54312 10.4875 1.60584 10.4861 1.66855C10.4842 1.76729 10.4824 1.86602 10.4812 1.96478C10.4799 2.06018 10.4777 2.15553 10.4755 2.25092C10.4745 2.30801 10.4736 2.3651 10.4726 2.42392C10.4515 2.59108 10.4136 2.67902 10.3125 2.8125C10.1719 2.90625 10.1719 2.90625 10.0078 2.89746C9.79016 2.84693 9.79016 2.84693 9.70312 2.71875C9.6874 2.59405 9.68007 2.48054 9.6795 2.35565C9.67904 2.31973 9.67857 2.28381 9.67809 2.24679C9.67737 2.17055 9.67704 2.09431 9.67707 2.01806C9.67676 1.90319 9.67422 1.78851 9.67154 1.67368C9.66619 1.17688 9.72525 0.773488 10.0605 0.379223C10.3918 0.0672535 10.773 -0.0281109 11.2162 -0.0241252Z" fill="black" stroke="black" stroke-width="0.3"/>
<path d="M12.8415 1.98649C12.8737 1.98619 12.906 1.9859 12.9392 1.98559C13.0469 1.98487 13.1545 1.98583 13.2622 1.98679C13.3395 1.98662 13.4168 1.98636 13.4941 1.986C13.7039 1.98533 13.9136 1.98613 14.1234 1.98723C14.3429 1.98817 14.5624 1.9879 14.7819 1.98779C15.1505 1.98779 15.519 1.98872 15.8876 1.99022C16.3138 1.99195 16.74 1.99236 17.1662 1.99203C17.5762 1.99174 17.9861 1.99224 18.396 1.99316C18.5705 1.99354 18.745 1.99367 18.9195 1.99359C19.125 1.99355 19.3304 1.99422 19.5358 1.99543C19.6112 1.99577 19.6867 1.99586 19.7621 1.99571C19.865 1.99553 19.9678 1.99622 20.0707 1.99714C20.1283 1.99731 20.1859 1.99749 20.2452 1.99767C20.4031 2.01716 20.4683 2.04278 20.5781 2.15625C20.6299 2.34251 20.6445 2.44172 20.5635 2.61914C20.4844 2.71875 20.4844 2.71875 20.3906 2.76562C20.2878 2.77056 20.1849 2.77237 20.082 2.77284C20.0499 2.77304 20.0178 2.77325 19.9848 2.77346C19.8768 2.77409 19.7688 2.77438 19.6608 2.77467C19.5836 2.77504 19.5064 2.77542 19.4291 2.77583C19.1751 2.77706 18.9211 2.77777 18.6671 2.77844C18.5797 2.77869 18.4923 2.77895 18.4049 2.7792C18.0415 2.78021 17.6781 2.78109 17.3148 2.78162C16.7936 2.78238 16.2724 2.78394 15.7512 2.78661C15.385 2.78842 15.0187 2.78934 14.6525 2.78958C14.4336 2.78975 14.2148 2.79032 13.996 2.79184C13.7901 2.79325 13.5842 2.79355 13.3783 2.79299C13.3028 2.79298 13.2272 2.79337 13.1516 2.79419C13.0484 2.79526 12.9453 2.79487 12.8421 2.79413C12.7844 2.79428 12.7267 2.79444 12.6672 2.7946C12.4725 2.75739 12.4029 2.68449 12.2812 2.53125C12.252 2.39062 12.252 2.39062 12.2812 2.25C12.4551 2.03121 12.565 1.98633 12.8415 1.98649Z" fill="black" stroke="black" stroke-width="0.3"/>
<path d="M4.01031 5.52498C4.04165 5.52488 4.073 5.52477 4.1053 5.52466C4.21055 5.52436 4.3158 5.5244 4.42106 5.52444C4.49644 5.5243 4.57182 5.52414 4.64719 5.52396C4.85213 5.52355 5.05706 5.52344 5.262 5.52341C5.433 5.52337 5.60401 5.52319 5.77501 5.52303C6.17845 5.52264 6.58188 5.52253 6.98531 5.52256C7.40162 5.52259 7.81793 5.5221 8.23424 5.52136C8.59152 5.52074 8.94881 5.52049 9.3061 5.52052C9.51955 5.52053 9.733 5.5204 9.94645 5.51991C10.1472 5.51945 10.348 5.51945 10.5487 5.51979C10.6224 5.51984 10.6961 5.51973 10.7698 5.51944C10.8704 5.51908 10.9709 5.5193 11.0715 5.51966C11.1278 5.51964 11.1841 5.51961 11.2421 5.51958C11.3903 5.53123 11.4928 5.55831 11.625 5.625C11.7266 5.74968 11.7185 5.81664 11.71 5.97949C11.6599 6.1914 11.6599 6.1914 11.5312 6.28125C11.3899 6.29895 11.3899 6.29895 11.2128 6.29911C11.1802 6.29933 11.1476 6.29955 11.1141 6.29977C11.0047 6.30033 10.8954 6.29989 10.786 6.29945C10.7077 6.29964 10.6294 6.29989 10.5511 6.30019C10.3382 6.30084 10.1254 6.30059 9.9125 6.30014C9.68998 6.29978 9.46745 6.30011 9.24493 6.30033C8.8712 6.30059 8.49748 6.30025 8.12375 6.29958C7.69135 6.29882 7.25897 6.29907 6.82657 6.29984C6.45567 6.30048 6.08477 6.30057 5.71387 6.3002C5.49219 6.29998 5.27052 6.29995 5.04885 6.30042C4.84047 6.30082 4.6321 6.30054 4.42372 6.29973C4.34713 6.29954 4.27054 6.2996 4.19396 6.29991C4.08962 6.30029 3.98532 6.29981 3.88099 6.29911C3.82254 6.29905 3.76408 6.299 3.70386 6.29895C3.5625 6.28125 3.5625 6.28125 3.47503 6.21971C3.38492 6.08565 3.37775 5.97185 3.375 5.8125C3.54353 5.53563 3.70326 5.52541 4.01031 5.52498Z" fill="black" stroke="black" stroke-width="0.3"/>
<path d="M3.99066 7.63158C4.03007 7.6312 4.06948 7.63082 4.11009 7.63042C4.24085 7.62926 4.37161 7.62848 4.50238 7.62781C4.54699 7.62756 4.59161 7.62731 4.63757 7.62705C4.87369 7.6258 5.10981 7.62489 5.34594 7.62421C5.58995 7.62343 5.83394 7.62133 6.07794 7.61895C6.26546 7.61737 6.45296 7.61683 6.64048 7.61656C6.73044 7.61625 6.82039 7.61553 6.91033 7.61441C7.03625 7.61293 7.16209 7.61293 7.28802 7.61327C7.34374 7.61212 7.34374 7.61212 7.40058 7.61094C7.58987 7.61308 7.67707 7.63244 7.82782 7.75073C7.92188 7.875 7.92188 7.875 7.95117 8.01562C7.91102 8.20835 7.84166 8.26948 7.6875 8.39062C7.54582 8.41333 7.43086 8.42184 7.28951 8.41946C7.25 8.41972 7.21049 8.41998 7.16978 8.42025C7.03953 8.4208 6.90936 8.41967 6.77911 8.41846C6.68847 8.41838 6.59782 8.41838 6.50717 8.41846C6.31735 8.41839 6.12756 8.41751 5.93776 8.41603C5.69443 8.41417 5.45113 8.41397 5.2078 8.41432C5.02068 8.41446 4.83358 8.41389 4.64647 8.41309C4.55674 8.41276 4.46701 8.41262 4.37729 8.41266C4.25194 8.41257 4.12664 8.41157 4.0013 8.41031C3.94566 8.41051 3.94566 8.41051 3.8889 8.41073C3.73861 8.40839 3.62767 8.40039 3.49388 8.32897C3.37804 8.20192 3.3779 8.08992 3.375 7.92188C3.51602 7.61297 3.67918 7.63325 3.99066 7.63158Z" fill="black" stroke="black" stroke-width="0.3"/>
<path d="M16.6626 4.10148C16.7225 4.1011 16.7225 4.1011 16.7837 4.10072C16.9157 4.10013 17.0477 4.1009 17.1797 4.10175C17.2715 4.10174 17.3632 4.10167 17.455 4.10154C17.6473 4.10147 17.8396 4.10206 18.0319 4.10313C18.2784 4.10446 18.5249 4.10433 18.7714 4.10374C18.9609 4.10341 19.1504 4.10377 19.3399 4.10436C19.4308 4.10457 19.5217 4.10458 19.6126 4.1044C19.7396 4.10426 19.8666 4.10504 19.9937 4.10606C20.0501 4.10574 20.0501 4.10574 20.1076 4.10542C20.259 4.10745 20.3714 4.11474 20.5063 4.18661C20.6231 4.31507 20.625 4.42385 20.625 4.59375C20.5422 4.72509 20.4829 4.8054 20.3438 4.875C20.2191 4.8801 20.0957 4.88237 19.9711 4.88255C19.9326 4.88279 19.8941 4.88302 19.8544 4.88326C19.7267 4.88394 19.599 4.88426 19.4713 4.88452C19.3826 4.88479 19.294 4.88506 19.2053 4.88533C19.0193 4.88582 18.8333 4.8861 18.6472 4.88626C18.4089 4.88652 18.1706 4.88764 17.9323 4.88898C17.7491 4.88985 17.5659 4.8901 17.3827 4.89017C17.2949 4.89031 17.207 4.89069 17.1192 4.8913C16.9962 4.8921 16.8732 4.89201 16.7502 4.89171C16.6958 4.89236 16.6958 4.89236 16.6403 4.89302C16.4293 4.89138 16.2925 4.86586 16.125 4.73438C16.0525 4.58945 16.0644 4.47214 16.0781 4.3125C16.2302 4.08856 16.4131 4.09848 16.6626 4.10148Z" fill="black" stroke="black" stroke-width="0.3"/>
</g>
<defs>
<clipPath id="clip0_1_3">
<rect width="24" height="24" fill="white"/>
</clipPath>
</defs>
</svg>
